<svg width="50" height="50" viewBox="0 0 50 50" fill="none" xmlns="http://www.w3.org/2000/svg">
<g clip-path="url(#clip0_41_1266)">
<path fill-rule="evenodd" clip-rule="evenodd" d="M10.9375 18.75C10.5231 18.75 10.1257 18.9146 9.83265 19.2076C9.53962 19.5007 9.375 19.8981 9.375 20.3125V45.3125C9.375 45.7269 9.53962 46.1243 9.83265 46.4174C10.1257 46.7104 10.5231 46.875 10.9375 46.875H39.0625C39.4769 46.875 39.8743 46.7104 40.1674 46.4174C40.4604 46.1243 40.625 45.7269 40.625 45.3125V20.3125C40.625 19.8981 40.4604 19.5007 40.1674 19.2076C39.8743 18.9146 39.4769 18.75 39.0625 18.75H32.8125C32.3981 18.75 32.0007 18.5854 31.7076 18.2924C31.4146 17.9993 31.25 17.6019 31.25 17.1875C31.25 16.7731 31.4146 16.3757 31.7076 16.0826C32.0007 15.7896 32.3981 15.625 32.8125 15.625H39.0625C40.3057 15.625 41.498 16.1189 42.3771 16.9979C43.2561 17.877 43.75 19.0693 43.75 20.3125V45.3125C43.75 46.5557 43.2561 47.748 42.3771 48.6271C41.498 49.5061 40.3057 50 39.0625 50H10.9375C9.6943 50 8.50201 49.5061 7.62294 48.6271C6.74386 47.748 6.25 46.5557 6.25 45.3125V20.3125C6.25 19.0693 6.74386 17.877 7.62294 16.9979C8.50201 16.1189 9.6943 15.625 10.9375 15.625H17.1875C17.6019 15.625 17.9993 15.7896 18.2924 16.0826C18.5854 16.3757 18.75 16.7731 18.75 17.1875C18.75 17.6019 18.5854 17.9993 18.2924 18.2924C17.9993 18.5854 17.6019 18.75 17.1875 18.75H10.9375Z" fill="black"/>
<path fill-rule="evenodd" clip-rule="evenodd" d="M23.8938 0.456052C24.0389 0.310542 24.2113 0.195096 24.4012 0.116326C24.591 0.0375555 24.7945 -0.00299072 25 -0.00299072C25.2055 -0.00299072 25.409 0.0375555 25.5989 0.116326C25.7887 0.195096 25.9611 0.310542 26.1063 0.456052L35.4813 9.83105C35.7747 10.1244 35.9395 10.5224 35.9395 10.9373C35.9395 11.3522 35.7747 11.7502 35.4813 12.0436C35.1879 12.3369 34.7899 12.5018 34.375 12.5018C33.9601 12.5018 33.5622 12.3369 33.2688 12.0436L26.5625 5.33418V32.8123C26.5625 33.2267 26.3979 33.6241 26.1049 33.9172C25.8119 34.2102 25.4144 34.3748 25 34.3748C24.5856 34.3748 24.1882 34.2102 23.8952 33.9172C23.6021 33.6241 23.4375 33.2267 23.4375 32.8123V5.33418L16.7313 12.0436C16.586 12.1888 16.4135 12.3041 16.2237 12.3827C16.0339 12.4613 15.8305 12.5018 15.625 12.5018C15.2101 12.5018 14.8122 12.3369 14.5188 12.0436C14.3735 11.8983 14.2583 11.7258 14.1796 11.536C14.101 11.3462 14.0605 11.1428 14.0605 10.9373C14.0605 10.5224 14.2254 10.1244 14.5188 9.83105L23.8938 0.456052Z" fill="black"/>
</g>
<defs>
<clipPath id="clip0_41_1266">
<rect width="50" height="50" fill="white"/>
</clipPath>
</defs>
</svg>
