<svg width="47" height="47" viewBox="0 0 47 47" fill="none" xmlns="http://www.w3.org/2000/svg">
<g clip-path="url(#clip0_41_1419)">
<path d="M23.5 43.375C18.1625 43.375 13.0436 41.2547 9.26948 37.4805C5.49531 33.7064 3.375 28.5875 3.375 23.25C3.375 17.9125 5.49531 12.7936 9.26948 9.01948C13.0436 5.24531 18.1625 3.125 23.5 3.125C28.8375 3.125 33.9564 5.24531 37.7305 9.01948C41.5047 12.7936 43.625 17.9125 43.625 23.25C43.625 28.5875 41.5047 33.7064 37.7305 37.4805C33.9564 41.2547 28.8375 43.375 23.5 43.375ZM23.5 46.25C29.6 46.25 35.4501 43.8268 39.7635 39.5135C44.0768 35.2001 46.5 29.35 46.5 23.25C46.5 17.15 44.0768 11.2999 39.7635 6.98654C35.4501 2.67321 29.6 0.25 23.5 0.25C17.4 0.25 11.5499 2.67321 7.23654 6.98654C2.92321 11.2999 0.5 17.15 0.5 23.25C0.5 29.35 2.92321 35.2001 7.23654 39.5135C11.5499 43.8268 17.4 46.25 23.5 46.25Z" fill="black"/>
<path d="M32.0387 14.5387L31.9812 14.602L21.9964 27.3238L15.979 21.3036C15.5702 20.9227 15.0296 20.7153 14.471 20.7252C13.9124 20.7351 13.3794 20.9614 12.9843 21.3564C12.5893 21.7515 12.363 22.2845 12.3531 22.8431C12.3433 23.4017 12.5506 23.9423 12.9315 24.3511L20.5387 31.9612C20.7437 32.1658 20.9877 32.327 21.2563 32.4352C21.5249 32.5434 21.8125 32.5964 22.102 32.591C22.3915 32.5856 22.677 32.522 22.9414 32.4039C23.2058 32.2858 23.4437 32.1157 23.6409 31.9037L35.1179 17.5575C35.5087 17.1473 35.7223 16.5998 35.7127 16.0333C35.703 15.4669 35.4708 14.927 35.0663 14.5303C34.6617 14.1337 34.1173 13.9123 33.5508 13.9138C32.9843 13.9154 32.4411 14.1399 32.0387 14.5387Z" fill="black"/>
</g>
<defs>
<clipPath id="clip0_41_1419">
<rect width="46" height="46" fill="white" transform="translate(0.5 0.25)"/>
</clipPath>
</defs>
</svg>
