<svg width="46" height="46" viewBox="0 0 46 46" fill="none" xmlns="http://www.w3.org/2000/svg">
<path d="M14.375 8.625C14.375 6.33751 15.2837 4.14371 16.9012 2.5262C18.5187 0.908703 20.7125 0 23 0C25.2875 0 27.4813 0.908703 29.0988 2.5262C30.7163 4.14371 31.625 6.33751 31.625 8.625V23C31.625 25.2875 30.7163 27.4813 29.0988 29.0988C27.4813 30.7163 25.2875 31.625 23 31.625C20.7125 31.625 18.5187 30.7163 16.9012 29.0988C15.2837 27.4813 14.375 25.2875 14.375 23V8.625Z" fill="black"/>
<path d="M10.0625 18.6875C10.4437 18.6875 10.8094 18.839 11.079 19.1085C11.3485 19.3781 11.5 19.7438 11.5 20.125V23C11.5 26.05 12.7116 28.9751 14.8683 31.1317C17.0249 33.2884 19.95 34.5 23 34.5C26.05 34.5 28.9751 33.2884 31.1317 31.1317C33.2884 28.9751 34.5 26.05 34.5 23V20.125C34.5 19.7438 34.6514 19.3781 34.921 19.1085C35.1906 18.839 35.5563 18.6875 35.9375 18.6875C36.3187 18.6875 36.6844 18.839 36.954 19.1085C37.2236 19.3781 37.375 19.7438 37.375 20.125V23C37.375 26.5636 36.0514 30.0003 33.6608 32.6432C31.2703 35.286 27.9833 36.9468 24.4375 37.3031V43.125H33.0625C33.4437 43.125 33.8094 43.2764 34.079 43.546C34.3486 43.8156 34.5 44.1813 34.5 44.5625C34.5 44.9437 34.3486 45.3094 34.079 45.579C33.8094 45.8486 33.4437 46 33.0625 46H12.9375C12.5563 46 12.1906 45.8486 11.921 45.579C11.6515 45.3094 11.5 44.9437 11.5 44.5625C11.5 44.1813 11.6515 43.8156 11.921 43.546C12.1906 43.2764 12.5563 43.125 12.9375 43.125H21.5625V37.3031C18.0167 36.9468 14.7297 35.286 12.3392 32.6432C9.9486 30.0003 8.62496 26.5636 8.625 23V20.125C8.625 19.7438 8.77645 19.3781 9.04603 19.1085C9.31562 18.839 9.68125 18.6875 10.0625 18.6875Z" fill="black"/>
</svg>
