<svg width="46" height="46" viewBox="0 0 46 46" fill="none" xmlns="http://www.w3.org/2000/svg">
<path d="M44.5682 5.5775C44.8369 5.84695 44.9877 6.21191 44.9877 6.59238C44.9877 6.97284 44.8369 7.3378 44.5682 7.60725L41.5696 10.6087L35.8196 4.85875L38.8182 1.85725C39.0878 1.58776 39.4534 1.43637 39.8346 1.43637C40.2157 1.43637 40.5813 1.58776 40.8509 1.85725L44.5682 5.57463V5.5775ZM39.537 12.6385L33.787 6.8885L14.1996 26.4787C14.0414 26.6369 13.9223 26.8299 13.8517 27.0422L11.5374 33.9825C11.4954 34.109 11.4894 34.2447 11.5202 34.3744C11.5509 34.5042 11.6171 34.6228 11.7113 34.717C11.8056 34.8113 11.9242 34.8775 12.0539 34.9082C12.1836 34.9389 12.3194 34.933 12.4459 34.891L19.3861 32.5766C19.5982 32.5069 19.7911 32.3888 19.9496 32.2316L39.537 12.6385Z" fill="black"/>
<path fill-rule="evenodd" clip-rule="evenodd" d="M2.875 38.8125C2.875 39.9562 3.32935 41.0531 4.1381 41.8619C4.94685 42.6706 6.04375 43.125 7.1875 43.125H38.8125C39.9562 43.125 41.0531 42.6706 41.8619 41.8619C42.6706 41.0531 43.125 39.9562 43.125 38.8125V21.5625C43.125 21.1813 42.9736 20.8156 42.704 20.546C42.4344 20.2765 42.0687 20.125 41.6875 20.125C41.3063 20.125 40.9406 20.2765 40.671 20.546C40.4014 20.8156 40.25 21.1813 40.25 21.5625V38.8125C40.25 39.1937 40.0986 39.5594 39.829 39.829C39.5594 40.0986 39.1937 40.25 38.8125 40.25H7.1875C6.80625 40.25 6.44062 40.0986 6.17103 39.829C5.90145 39.5594 5.75 39.1937 5.75 38.8125V7.1875C5.75 6.80625 5.90145 6.44062 6.17103 6.17103C6.44062 5.90145 6.80625 5.75 7.1875 5.75H25.875C26.2562 5.75 26.6219 5.59855 26.8915 5.32897C27.1611 5.05938 27.3125 4.69375 27.3125 4.3125C27.3125 3.93125 27.1611 3.56562 26.8915 3.29603C26.6219 3.02645 26.2562 2.875 25.875 2.875H7.1875C6.04375 2.875 4.94685 3.32935 4.1381 4.1381C3.32935 4.94685 2.875 6.04375 2.875 7.1875V38.8125Z" fill="black"/>
</svg>
