<svg width="47" height="47" viewBox="0 0 47 47" fill="none" xmlns="http://www.w3.org/2000/svg">
<g clip-path="url(#clip0_41_1455)">
<path d="M23.5 43.5416C18.1625 43.5416 13.0436 41.4213 9.26948 37.6471C5.49531 33.873 3.375 28.7541 3.375 23.4166C3.375 18.0791 5.49531 12.9603 9.26948 9.1861C13.0436 5.41193 18.1625 3.29163 23.5 3.29163C28.8375 3.29163 33.9564 5.41193 37.7305 9.1861C41.5047 12.9603 43.625 18.0791 43.625 23.4166C43.625 28.7541 41.5047 33.873 37.7305 37.6471C33.9564 41.4213 28.8375 43.5416 23.5 43.5416ZM23.5 46.4166C29.6 46.4166 35.4501 43.9934 39.7635 39.6801C44.0768 35.3667 46.5 29.5166 46.5 23.4166C46.5 17.3166 44.0768 11.4665 39.7635 7.15317C35.4501 2.83983 29.6 0.416626 23.5 0.416626C17.4 0.416626 11.5499 2.83983 7.23654 7.15317C2.92321 11.4665 0.5 17.3166 0.5 23.4166C0.5 29.5166 2.92321 35.3667 7.23654 39.6801C11.5499 43.9934 17.4 46.4166 23.5 46.4166Z" fill="black"/>
<path d="M18.5291 14.9498C18.7643 14.8287 19.0282 14.7748 19.292 14.7941C19.5558 14.8134 19.8091 14.905 20.0241 15.059L30.0866 22.2465C30.273 22.3795 30.4249 22.5551 30.5297 22.7586C30.6345 22.9621 30.6891 23.1877 30.6891 23.4166C30.6891 23.6456 30.6345 23.8712 30.5297 24.0747C30.4249 24.2782 30.273 24.4538 30.0866 24.5868L20.0241 31.7743C19.8092 31.9281 19.556 32.0197 19.2923 32.039C19.0287 32.0583 18.7649 32.0045 18.5298 31.8835C18.2948 31.7626 18.0976 31.5792 17.96 31.3535C17.8225 31.1278 17.7498 30.8685 17.75 30.6041V16.2291C17.7497 15.9649 17.8223 15.7057 17.9597 15.48C18.0972 15.2543 18.2942 15.0708 18.5291 14.9498Z" fill="black"/>
</g>
<defs>
<clipPath id="clip0_41_1455">
<rect width="46" height="46" fill="white" transform="translate(0.5 0.416626)"/>
</clipPath>
</defs>
</svg>
