<svg width="46" height="46" viewBox="0 0 46 46" fill="none" xmlns="http://www.w3.org/2000/svg">
<g clip-path="url(#clip0_48_148)">
<path d="M46 23C46 29.1 43.5768 34.9501 39.2635 39.2635C34.9501 43.5768 29.1 46 23 46C16.9 46 11.0499 43.5768 6.73654 39.2635C2.42321 34.9501 0 29.1 0 23C0 16.9 2.42321 11.0499 6.73654 6.73654C11.0499 2.42321 16.9 0 23 0C29.1 0 34.9501 2.42321 39.2635 6.73654C43.5768 11.0499 46 16.9 46 23ZM18.6875 14.375C17.5438 14.375 16.4469 14.8294 15.6381 15.6381C14.8294 16.4469 14.375 17.5438 14.375 18.6875V27.3125C14.375 28.4562 14.8294 29.5531 15.6381 30.3619C16.4469 31.1706 17.5438 31.625 18.6875 31.625H27.3125C28.4562 31.625 29.5531 31.1706 30.3619 30.3619C31.1706 29.5531 31.625 28.4562 31.625 27.3125V18.6875C31.625 17.5438 31.1706 16.4469 30.3619 15.6381C29.5531 14.8294 28.4562 14.375 27.3125 14.375H18.6875Z" fill="#DB3232"/>
</g>
<defs>
<clipPath id="clip0_48_148">
<rect width="46" height="46" fill="white"/>
</clipPath>
</defs>
</svg>
