<svg width="46" height="46" viewBox="0 0 46 46" fill="none" xmlns="http://www.w3.org/2000/svg">
<path d="M15.8125 15.8125C16.1937 15.8125 16.5594 15.964 16.829 16.2335C17.0985 16.5031 17.25 16.8688 17.25 17.25V34.5C17.25 34.8812 17.0985 35.2469 16.829 35.5165C16.5594 35.7861 16.1937 35.9375 15.8125 35.9375C15.4313 35.9375 15.0656 35.7861 14.796 35.5165C14.5265 35.2469 14.375 34.8812 14.375 34.5V17.25C14.375 16.8688 14.5265 16.5031 14.796 16.2335C15.0656 15.964 15.4313 15.8125 15.8125 15.8125ZM23 15.8125C23.3812 15.8125 23.7469 15.964 24.0165 16.2335C24.2861 16.5031 24.4375 16.8688 24.4375 17.25V34.5C24.4375 34.8812 24.2861 35.2469 24.0165 35.5165C23.7469 35.7861 23.3812 35.9375 23 35.9375C22.6188 35.9375 22.2531 35.7861 21.9835 35.5165C21.714 35.2469 21.5625 34.8812 21.5625 34.5V17.25C21.5625 16.8688 21.714 16.5031 21.9835 16.2335C22.2531 15.964 22.6188 15.8125 23 15.8125ZM31.625 17.25C31.625 16.8688 31.4736 16.5031 31.204 16.2335C30.9344 15.964 30.5687 15.8125 30.1875 15.8125C29.8063 15.8125 29.4406 15.964 29.171 16.2335C28.9014 16.5031 28.75 16.8688 28.75 17.25V34.5C28.75 34.8812 28.9014 35.2469 29.171 35.5165C29.4406 35.7861 29.8063 35.9375 30.1875 35.9375C30.5687 35.9375 30.9344 35.7861 31.204 35.5165C31.4736 35.2469 31.625 34.8812 31.625 34.5V17.25Z" fill="black"/>
<path d="M41.6875 8.625C41.6875 9.3875 41.3846 10.1188 40.8454 10.6579C40.3063 11.1971 39.575 11.5 38.8125 11.5H37.375V37.375C37.375 38.9 36.7692 40.3625 35.6909 41.4409C34.6125 42.5192 33.15 43.125 31.625 43.125H14.375C12.85 43.125 11.3875 42.5192 10.3091 41.4409C9.2308 40.3625 8.625 38.9 8.625 37.375V11.5H7.1875C6.425 11.5 5.69373 11.1971 5.15457 10.6579C4.6154 10.1188 4.3125 9.3875 4.3125 8.625V5.75C4.3125 4.9875 4.6154 4.25623 5.15457 3.71707C5.69373 3.1779 6.425 2.875 7.1875 2.875H17.25C17.25 2.1125 17.5529 1.38124 18.0921 0.842068C18.6312 0.302901 19.3625 0 20.125 0L25.875 0C26.6375 0 27.3688 0.302901 27.9079 0.842068C28.4471 1.38124 28.75 2.1125 28.75 2.875H38.8125C39.575 2.875 40.3063 3.1779 40.8454 3.71707C41.3846 4.25623 41.6875 4.9875 41.6875 5.75V8.625ZM11.8393 11.5L11.5 11.6696V37.375C11.5 38.1375 11.8029 38.8688 12.3421 39.4079C12.8812 39.9471 13.6125 40.25 14.375 40.25H31.625C32.3875 40.25 33.1188 39.9471 33.6579 39.4079C34.1971 38.8688 34.5 38.1375 34.5 37.375V11.6696L34.1607 11.5H11.8393ZM7.1875 8.625H38.8125V5.75H7.1875V8.625Z" fill="black"/>
</svg>
